<svg width="48" height="48" viewBox="0 0 48 48" fill="none" xmlns="http://www.w3.org/2000/svg">
<path d="M26.0562 4.00246C27.5156 3.99686 28.9751 4.01153 30.4342 4.04646L30.8222 4.06046C31.2702 4.07646 31.7122 4.09646 32.2462 4.12046C34.3742 4.22046 35.8262 4.55646 37.1002 5.05046C38.4202 5.55846 39.5322 6.24646 40.6442 7.35846C41.6609 8.35767 42.4478 9.56635 42.9502 10.9005C43.4442 12.1745 43.7802 13.6285 43.8802 15.7565C43.9042 16.2885 43.9242 16.7325 43.9402 17.1805L43.9522 17.5685C43.9877 19.0268 44.003 20.4857 43.9982 21.9445L44.0002 23.4365V26.0565C44.0051 27.5159 43.9898 28.9754 43.9542 30.4345L43.9422 30.8225C43.9262 31.2705 43.9062 31.7125 43.8822 32.2465C43.7822 34.3745 43.4422 35.8265 42.9502 37.1005C42.4495 38.436 41.6624 39.6457 40.6442 40.6445C39.6441 41.6611 38.4348 42.448 37.1002 42.9505C35.8262 43.4445 34.3742 43.7805 32.2462 43.8805C31.7122 43.9045 31.2702 43.9245 30.8222 43.9405L30.4342 43.9525C28.9751 43.988 27.5157 44.0033 26.0562 43.9985L24.5642 44.0005H21.9462C20.4867 44.0054 19.0272 43.9901 17.5682 43.9545L17.1802 43.9425C16.7054 43.9253 16.2307 43.9053 15.7562 43.8825C13.6282 43.7825 12.1762 43.4425 10.9002 42.9505C9.56555 42.4492 8.35665 41.6621 7.35818 40.6445C6.34027 39.645 5.55263 38.4356 5.05018 37.1005C4.55618 35.8265 4.22018 34.3745 4.12018 32.2465C4.0979 31.7719 4.0779 31.2972 4.06018 30.8225L4.05018 30.4345C4.0133 28.9754 3.99664 27.516 4.00018 26.0565V21.9445C3.9946 20.4857 4.00926 19.0269 4.04418 17.5685L4.05818 17.1805C4.07418 16.7325 4.09418 16.2885 4.11818 15.7565C4.21818 13.6265 4.55418 12.1765 5.04818 10.9005C5.55092 9.5657 6.34011 8.35735 7.36018 7.36046C8.35797 6.34196 9.5661 5.55361 10.9002 5.05046C12.1762 4.55646 13.6262 4.22046 15.7562 4.12046L17.1802 4.06046L17.5682 4.05046C19.0265 4.01361 20.4853 3.99694 21.9442 4.00046L26.0562 4.00246ZM24.0002 14.0025C22.6752 13.9837 21.3597 14.2285 20.1301 14.7226C18.9006 15.2167 17.7815 15.9502 16.8379 16.8806C15.8943 17.8109 15.145 18.9195 14.6336 20.142C14.1221 21.3644 13.8588 22.6763 13.8588 24.0015C13.8588 25.3266 14.1221 26.6385 14.6336 27.8609C15.145 29.0834 15.8943 30.192 16.8379 31.1224C17.7815 32.0527 18.9006 32.7862 20.1301 33.2803C21.3597 33.7744 22.6752 34.0192 24.0002 34.0005C26.6523 34.0005 29.1959 32.9469 31.0712 31.0715C32.9466 29.1962 34.0002 26.6526 34.0002 24.0005C34.0002 21.3483 32.9466 18.8048 31.0712 16.9294C29.1959 15.054 26.6523 14.0025 24.0002 14.0025ZM24.0002 18.0025C24.7972 17.9878 25.5891 18.1321 26.3298 18.4269C27.0704 18.7217 27.7449 19.1611 28.3137 19.7196C28.8826 20.278 29.3345 20.9441 29.6431 21.6791C29.9516 22.4142 30.1106 23.2033 30.1107 24.0004C30.1108 24.7976 29.9521 25.5868 29.6438 26.3219C29.3355 27.057 28.8839 27.7233 28.3152 28.2819C27.7465 28.8405 27.0722 29.2802 26.3316 29.5753C25.5911 29.8703 24.7992 30.0149 24.0022 30.0005C22.4109 30.0005 20.8848 29.3683 19.7595 28.2431C18.6343 27.1179 18.0022 25.5918 18.0022 24.0005C18.0022 22.4092 18.6343 20.883 19.7595 19.7578C20.8848 18.6326 22.4109 18.0005 24.0022 18.0005L24.0002 18.0025ZM34.5002 11.0025C33.855 11.0283 33.2448 11.3028 32.7974 11.7684C32.35 12.234 32.1002 12.8547 32.1002 13.5005C32.1002 14.1462 32.35 14.7669 32.7974 15.2325C33.2448 15.6982 33.855 15.9726 34.5002 15.9985C35.1632 15.9985 35.7991 15.7351 36.2679 15.2662C36.7368 14.7974 37.0002 14.1615 37.0002 13.4985C37.0002 12.8354 36.7368 12.1995 36.2679 11.7307C35.7991 11.2619 35.1632 10.9985 34.5002 10.9985V11.0025Z"/>
</svg>
