<svg width="48" height="48" viewBox="0 0 48 48" fill="none" xmlns="http://www.w3.org/2000/svg">
<g clip-path="url(#clip0_1815_6226)">
<path d="M24 0.960938C11.2752 0.960938 0.959961 11.2761 0.959961 24.0009C0.959961 36.7257 11.2752 47.0409 24 47.0409C36.7248 47.0409 47.04 36.7257 47.04 24.0009C47.04 11.2761 36.7248 0.960938 24 0.960938ZM18.36 33.5505H13.6944V18.5361H18.36V33.5505ZM15.9984 16.6929C14.5248 16.6929 13.572 15.6489 13.572 14.3577C13.572 13.0401 14.5536 12.0273 16.0584 12.0273C17.5632 12.0273 18.4848 13.0401 18.5136 14.3577C18.5136 15.6489 17.5632 16.6929 15.9984 16.6929ZM35.4 33.5505H30.7344V25.2297C30.7344 23.2929 30.0576 21.9777 28.3704 21.9777C27.0816 21.9777 26.316 22.8681 25.9776 23.7249C25.8528 24.0297 25.8216 24.4617 25.8216 24.8913V33.5481H21.1536V23.3241C21.1536 21.4497 21.0936 19.8825 21.0312 18.5337H25.0848L25.2984 20.6193H25.392C26.0064 19.6401 27.5112 18.1953 30.0288 18.1953C33.0984 18.1953 35.4 20.2521 35.4 24.6729V33.5505Z"/>
</g>
<defs>
<clipPath id="clip0_1815_6226">
<rect width="48" height="48" fill="white"/>
</clipPath>
</defs>
</svg>
