<svg xmlns="http://www.w3.org/2000/svg" width="32" height="32" viewBox="0 0 32 32" fill="none">
<path fill-rule="evenodd" clip-rule="evenodd" d="M16 32C24.8366 32 32 24.8366 32 16C32 7.16344 24.8366 0 16 0C7.16344 0 0 7.16344 0 16C0 24.8366 7.16344 32 16 32ZM12.9705 8.68371C12.9708 8.78198 13.0525 8.86209 13.1531 8.86269L16.018 8.86809L18.8795 8.8739C18.9804 8.8745 19.0627 8.79432 19.0629 8.69555L19.0628 8.69228C19.063 8.59354 18.9813 8.51342 18.88 8.51311L16.0187 8.50714L13.154 8.50169C13.0533 8.5012 12.9709 8.58133 12.9708 8.67986L12.9705 8.68371ZM10.163 24.5729C8.6559 24.5699 7.71646 23.179 8.47213 22.0686L13.4184 14.8056L13.4297 9.12309L13.2823 9.12282C13.0083 9.12229 12.7863 8.90467 12.787 8.63723L12.7898 7.0485C12.7904 6.781 13.0133 6.56417 13.2876 6.56467L16.0211 6.57014L18.3559 6.57503L18.755 6.57536C19.0289 6.57604 19.2508 6.79358 19.2502 7.06087L19.2491 7.49066L19.2468 8.65023C19.2467 8.91728 19.0237 9.13398 18.7496 9.13374L18.6022 9.13352L18.5908 14.8162L23.507 22.0992C24.2589 23.212 23.314 24.5997 21.807 24.5962L15.9848 24.585L10.163 24.5729Z"/>
</svg>