<svg width="40" height="40" viewBox="0 0 40 40" fill="none" xmlns="http://www.w3.org/2000/svg">
<g id="plus">
<path id="Vector" fill-rule="evenodd" clip-rule="evenodd" d="M19.375 5C19.8723 5 20.3492 5.19755 20.7008 5.54918C21.0525 5.9008 21.25 6.37773 21.25 6.875V17.5H31.875C32.3722 17.5 32.8493 17.6975 33.2008 18.0492C33.5525 18.4008 33.75 18.8777 33.75 19.375C33.75 19.8723 33.5525 20.3492 33.2008 20.7008C32.8493 21.0525 32.3722 21.25 31.875 21.25H21.25V31.875C21.25 32.3722 21.0525 32.8493 20.7008 33.2008C20.3492 33.5525 19.8723 33.75 19.375 33.75C18.8777 33.75 18.4008 33.5525 18.0492 33.2008C17.6975 32.8493 17.5 32.3722 17.5 31.875V21.25H6.875C6.37773 21.25 5.9008 21.0525 5.54918 20.7008C5.19755 20.3492 5 19.8723 5 19.375C5 18.8777 5.19755 18.4008 5.54918 18.0492C5.9008 17.6975 6.37773 17.5 6.875 17.5H17.5V6.875C17.5 6.37773 17.6975 5.9008 18.0492 5.54918C18.4008 5.19755 18.8777 5 19.375 5Z" fill="#8657DD"/>
</g>
</svg>
