<svg xmlns="http://www.w3.org/2000/svg" viewBox="0 0 40 40" fill="none">
    <path d="M7 30.6667H5.25H7ZM13.6667 24V22.25V24ZM27 24V22.25V24ZM8.75 30.6667C8.75 29.3627 9.268 28.1121 10.1901 27.1901L7.71518 24.7152C6.13675 26.2936 5.25 28.4344 5.25 30.6667H8.75ZM10.1901 27.1901C11.1121 26.268 12.3627 25.75 13.6667 25.75V22.25C11.4344 22.25 9.29362 23.1368 7.71518 24.7152L10.1901 27.1901ZM13.6667 25.75H27V22.25H13.6667V25.75ZM27 25.75C28.304 25.75 29.5546 26.268 30.4766 27.1901L32.9515 24.7152C31.373 23.1368 29.2322 22.25 27 22.25V25.75ZM30.4766 27.1901C31.3987 28.1121 31.9167 29.3627 31.9167 30.6667H35.4167C35.4167 28.4344 34.5299 26.2936 32.9515 24.7152L30.4766 27.1901ZM31.9167 30.6667C31.9167 31.0866 31.7499 31.4893 31.4529 31.7863L33.9278 34.2611C34.8811 33.3078 35.4167 32.0149 35.4167 30.6667H31.9167ZM31.4529 31.7863C31.156 32.0832 30.7533 32.25 30.3333 32.25V35.75C31.6815 35.75 32.9745 35.2144 33.9278 34.2611L31.4529 31.7863ZM30.3333 32.25H10.3333V35.75H30.3333V32.25ZM10.3333 32.25C9.91341 32.25 9.51068 32.0832 9.21375 31.7863L6.73887 34.2611C7.69218 35.2144 8.98515 35.75 10.3333 35.75V32.25ZM9.21375 31.7863C8.91681 31.4893 8.75 31.0866 8.75 30.6667H5.25C5.25 32.0149 5.78556 33.3078 6.73887 34.2611L9.21375 31.7863ZM23.584 12C23.584 13.7949 22.1289 15.25 20.334 15.25V18.75C24.0619 18.75 27.084 15.7279 27.084 12H23.584ZM20.334 15.25C18.5391 15.25 17.084 13.7949 17.084 12H13.584C13.584 15.7279 16.6061 18.75 20.334 18.75V15.25ZM17.084 12C17.084 10.2051 18.5391 8.75 20.334 8.75V5.25C16.6061 5.25 13.584 8.27208 13.584 12H17.084ZM20.334 8.75C22.1289 8.75 23.584 10.2051 23.584 12H27.084C27.084 8.27208 24.0619 5.25 20.334 5.25V8.75Z" />
</svg>